<mxfile host="Electron" agent="Mozilla/5.0 (X11; Linux x86_64) AppleWebKit/537.36 (KHTML, like Gecko) draw.io/28.0.6 Chrome/138.0.7204.100 Electron/37.2.3 Safari/537.36" version="28.0.6">
  <diagram name="Amlet Architecture" id="amlet-arch">
    <mxGraphModel dx="1223" dy="727" grid="1" gridSize="10" guides="1" tooltips="1" connect="1" arrows="1" fold="1" page="1" pageScale="1" pageWidth="1600" pageHeight="900" math="0" shadow="0">
      <root>
        <mxCell id="0" />
        <mxCell id="1" parent="0" />
        <mxCell id="bamlet-ctrl" value="Config" style="rounded=0;whiteSpace=wrap;html=1;fillColor=none;strokeColor=none;fontSize=17;" parent="1" vertex="1">
          <mxGeometry x="830" y="210" width="100" height="30" as="geometry" />
        </mxCell>
        <mxCell id="register-file" value="Instruction&lt;div&gt;Memory&lt;/div&gt;" style="rounded=0;whiteSpace=wrap;html=1;fillColor=#dae8fc;strokeColor=#000000;fontSize=17;strokeWidth=2;" parent="1" vertex="1">
          <mxGeometry x="560" y="120" width="160" height="60" as="geometry" />
        </mxCell>
        <mxCell id="recvif-to-ctrl" style="edgeStyle=orthogonalEdgeStyle;rounded=0;orthogonalLoop=1;jettySize=auto;html=1;exitX=0.5;exitY=1;exitDx=0;exitDy=0;entryX=0.5;entryY=0;entryDx=0;entryDy=0;strokeWidth=2;" parent="1" source="GFcg_PQRNG52ITC8k2Fa-27" target="GFcg_PQRNG52ITC8k2Fa-31" edge="1">
          <mxGeometry relative="1" as="geometry">
            <Array as="points">
              <mxPoint x="640" y="440" />
              <mxPoint x="880" y="440" />
            </Array>
            <mxPoint x="950" y="400" as="sourcePoint" />
          </mxGeometry>
        </mxCell>
        <mxCell id="GFcg_PQRNG52ITC8k2Fa-22" value="" style="endArrow=classic;html=1;rounded=0;exitX=0.5;exitY=1;exitDx=0;exitDy=0;strokeWidth=2;" edge="1" parent="1" source="register-file">
          <mxGeometry width="50" height="50" relative="1" as="geometry">
            <mxPoint x="700" y="290" as="sourcePoint" />
            <mxPoint x="640" y="220" as="targetPoint" />
          </mxGeometry>
        </mxCell>
        <mxCell id="GFcg_PQRNG52ITC8k2Fa-23" value="Loop Unrolling" style="rounded=0;whiteSpace=wrap;html=1;fillColor=#CCFF99;strokeColor=#000000;fontSize=17;strokeWidth=2;" vertex="1" parent="1">
          <mxGeometry x="560" y="220" width="160" height="80" as="geometry" />
        </mxCell>
        <mxCell id="GFcg_PQRNG52ITC8k2Fa-24" value="" style="endArrow=classic;html=1;rounded=0;exitX=0.25;exitY=0;exitDx=0;exitDy=0;" edge="1" parent="1" source="GFcg_PQRNG52ITC8k2Fa-23">
          <mxGeometry width="50" height="50" relative="1" as="geometry">
            <mxPoint x="520" y="190" as="sourcePoint" />
            <mxPoint x="600" y="180" as="targetPoint" />
          </mxGeometry>
        </mxCell>
        <mxCell id="GFcg_PQRNG52ITC8k2Fa-25" value="pc" style="edgeLabel;html=1;align=center;verticalAlign=middle;resizable=0;points=[];fontSize=18;" vertex="1" connectable="0" parent="GFcg_PQRNG52ITC8k2Fa-24">
          <mxGeometry x="-0.35" y="1" relative="1" as="geometry">
            <mxPoint as="offset" />
          </mxGeometry>
        </mxCell>
        <mxCell id="GFcg_PQRNG52ITC8k2Fa-26" value="" style="endArrow=classic;html=1;rounded=0;strokeWidth=2;entryX=0.5;entryY=0;entryDx=0;entryDy=0;" edge="1" parent="1" target="GFcg_PQRNG52ITC8k2Fa-27">
          <mxGeometry width="50" height="50" relative="1" as="geometry">
            <mxPoint x="640" y="300" as="sourcePoint" />
            <mxPoint x="639.71" y="330" as="targetPoint" />
          </mxGeometry>
        </mxCell>
        <mxCell id="GFcg_PQRNG52ITC8k2Fa-36" value="" style="edgeStyle=orthogonalEdgeStyle;rounded=0;orthogonalLoop=1;jettySize=auto;html=1;" edge="1" parent="1" source="GFcg_PQRNG52ITC8k2Fa-27" target="GFcg_PQRNG52ITC8k2Fa-30">
          <mxGeometry relative="1" as="geometry" />
        </mxCell>
        <mxCell id="GFcg_PQRNG52ITC8k2Fa-27" value="Initial Reorder" style="rounded=0;whiteSpace=wrap;html=1;fillColor=#d5e8d4;strokeColor=#000000;fontSize=17;strokeWidth=2;" vertex="1" parent="1">
          <mxGeometry x="560" y="340" width="160" height="60" as="geometry" />
        </mxCell>
        <mxCell id="GFcg_PQRNG52ITC8k2Fa-28" value="Amlet" style="rounded=0;whiteSpace=wrap;html=1;fillColor=#CCCCCC;strokeColor=#000000;fontSize=18;strokeWidth=2;" vertex="1" parent="1">
          <mxGeometry x="340" y="480" width="120" height="120" as="geometry" />
        </mxCell>
        <mxCell id="GFcg_PQRNG52ITC8k2Fa-29" value="Amlet" style="rounded=0;whiteSpace=wrap;html=1;fillColor=#CCCCCC;strokeColor=#000000;fontSize=18;strokeWidth=2;" vertex="1" parent="1">
          <mxGeometry x="500" y="480" width="120" height="120" as="geometry" />
        </mxCell>
        <mxCell id="GFcg_PQRNG52ITC8k2Fa-30" value="Amlet" style="rounded=0;whiteSpace=wrap;html=1;fillColor=#CCCCCC;strokeColor=#000000;fontSize=18;strokeWidth=2;" vertex="1" parent="1">
          <mxGeometry x="660" y="480" width="120" height="120" as="geometry" />
        </mxCell>
        <mxCell id="GFcg_PQRNG52ITC8k2Fa-31" value="Amlet" style="rounded=0;whiteSpace=wrap;html=1;fillColor=#CCCCCC;strokeColor=#000000;fontSize=18;strokeWidth=2;" vertex="1" parent="1">
          <mxGeometry x="820" y="480" width="120" height="120" as="geometry" />
        </mxCell>
        <mxCell id="GFcg_PQRNG52ITC8k2Fa-32" style="edgeStyle=orthogonalEdgeStyle;rounded=0;orthogonalLoop=1;jettySize=auto;html=1;entryX=0.5;entryY=0;entryDx=0;entryDy=0;strokeWidth=2;" edge="1" parent="1">
          <mxGeometry relative="1" as="geometry">
            <Array as="points">
              <mxPoint x="640" y="440" />
              <mxPoint x="400" y="440" />
            </Array>
            <mxPoint x="640" y="400" as="sourcePoint" />
            <mxPoint x="400" y="480" as="targetPoint" />
          </mxGeometry>
        </mxCell>
        <mxCell id="GFcg_PQRNG52ITC8k2Fa-33" style="edgeStyle=orthogonalEdgeStyle;rounded=0;orthogonalLoop=1;jettySize=auto;html=1;entryX=0.5;entryY=0;entryDx=0;entryDy=0;strokeWidth=2;exitX=0.5;exitY=1;exitDx=0;exitDy=0;" edge="1" parent="1" source="GFcg_PQRNG52ITC8k2Fa-27">
          <mxGeometry relative="1" as="geometry">
            <Array as="points">
              <mxPoint x="640" y="440" />
              <mxPoint x="560" y="440" />
            </Array>
            <mxPoint x="800" y="400" as="sourcePoint" />
            <mxPoint x="560" y="480" as="targetPoint" />
          </mxGeometry>
        </mxCell>
        <mxCell id="GFcg_PQRNG52ITC8k2Fa-34" style="edgeStyle=orthogonalEdgeStyle;rounded=0;orthogonalLoop=1;jettySize=auto;html=1;entryX=0.5;entryY=0;entryDx=0;entryDy=0;strokeWidth=2;" edge="1" parent="1">
          <mxGeometry relative="1" as="geometry">
            <Array as="points">
              <mxPoint x="640" y="400" />
              <mxPoint x="640" y="440" />
              <mxPoint x="720" y="440" />
            </Array>
            <mxPoint x="640" y="410" as="sourcePoint" />
            <mxPoint x="720" y="480" as="targetPoint" />
          </mxGeometry>
        </mxCell>
        <mxCell id="GFcg_PQRNG52ITC8k2Fa-35" style="edgeStyle=orthogonalEdgeStyle;rounded=0;orthogonalLoop=1;jettySize=auto;html=1;entryX=0;entryY=0.25;entryDx=0;entryDy=0;strokeWidth=1;exitX=0.25;exitY=0;exitDx=0;exitDy=0;dashed=1;" edge="1" parent="1" source="GFcg_PQRNG52ITC8k2Fa-28" target="GFcg_PQRNG52ITC8k2Fa-23">
          <mxGeometry relative="1" as="geometry">
            <Array as="points">
              <mxPoint x="370" y="240" />
            </Array>
            <mxPoint x="519.99" y="290" as="sourcePoint" />
            <mxPoint x="279.99" y="370" as="targetPoint" />
          </mxGeometry>
        </mxCell>
        <mxCell id="GFcg_PQRNG52ITC8k2Fa-37" style="edgeStyle=orthogonalEdgeStyle;rounded=0;orthogonalLoop=1;jettySize=auto;html=1;entryX=0;entryY=0.75;entryDx=0;entryDy=0;strokeWidth=1;exitX=0.25;exitY=0;exitDx=0;exitDy=0;dashed=1;" edge="1" parent="1" source="GFcg_PQRNG52ITC8k2Fa-29" target="GFcg_PQRNG52ITC8k2Fa-23">
          <mxGeometry relative="1" as="geometry">
            <Array as="points">
              <mxPoint x="530" y="280" />
            </Array>
            <mxPoint x="450" y="470" as="sourcePoint" />
            <mxPoint x="640" y="230" as="targetPoint" />
          </mxGeometry>
        </mxCell>
        <mxCell id="GFcg_PQRNG52ITC8k2Fa-38" style="edgeStyle=orthogonalEdgeStyle;rounded=0;orthogonalLoop=1;jettySize=auto;html=1;entryX=1;entryY=0.25;entryDx=0;entryDy=0;strokeWidth=1;dashed=1;" edge="1" parent="1" target="GFcg_PQRNG52ITC8k2Fa-23">
          <mxGeometry relative="1" as="geometry">
            <Array as="points">
              <mxPoint x="920" y="480" />
              <mxPoint x="920" y="240" />
            </Array>
            <mxPoint x="920" y="480" as="sourcePoint" />
            <mxPoint x="630" y="240" as="targetPoint" />
          </mxGeometry>
        </mxCell>
        <mxCell id="GFcg_PQRNG52ITC8k2Fa-39" style="edgeStyle=orthogonalEdgeStyle;rounded=0;orthogonalLoop=1;jettySize=auto;html=1;entryX=1;entryY=0.25;entryDx=0;entryDy=0;strokeWidth=1;exitX=0.75;exitY=0;exitDx=0;exitDy=0;dashed=1;" edge="1" parent="1" source="GFcg_PQRNG52ITC8k2Fa-30">
          <mxGeometry relative="1" as="geometry">
            <Array as="points">
              <mxPoint x="750" y="280" />
            </Array>
            <mxPoint x="920" y="520" as="sourcePoint" />
            <mxPoint x="720" y="280" as="targetPoint" />
          </mxGeometry>
        </mxCell>
        <mxCell id="GFcg_PQRNG52ITC8k2Fa-40" style="edgeStyle=orthogonalEdgeStyle;rounded=0;orthogonalLoop=1;jettySize=auto;html=1;entryX=0;entryY=0.25;entryDx=0;entryDy=0;strokeWidth=1;dashed=1;" edge="1" parent="1">
          <mxGeometry relative="1" as="geometry">
            <Array as="points">
              <mxPoint x="370" y="140" />
            </Array>
            <mxPoint x="370" y="240" as="sourcePoint" />
            <mxPoint x="560" y="140" as="targetPoint" />
          </mxGeometry>
        </mxCell>
        <mxCell id="GFcg_PQRNG52ITC8k2Fa-41" style="edgeStyle=orthogonalEdgeStyle;rounded=0;orthogonalLoop=1;jettySize=auto;html=1;entryX=0;entryY=0.75;entryDx=0;entryDy=0;strokeWidth=1;dashed=1;" edge="1" parent="1">
          <mxGeometry relative="1" as="geometry">
            <Array as="points">
              <mxPoint x="530" y="160" />
            </Array>
            <mxPoint x="530" y="280" as="sourcePoint" />
            <mxPoint x="560" y="160" as="targetPoint" />
          </mxGeometry>
        </mxCell>
        <mxCell id="GFcg_PQRNG52ITC8k2Fa-42" style="edgeStyle=orthogonalEdgeStyle;rounded=0;orthogonalLoop=1;jettySize=auto;html=1;entryX=1;entryY=0.25;entryDx=0;entryDy=0;strokeWidth=1;dashed=1;" edge="1" parent="1">
          <mxGeometry relative="1" as="geometry">
            <Array as="points">
              <mxPoint x="920" y="140" />
            </Array>
            <mxPoint x="920" y="240" as="sourcePoint" />
            <mxPoint x="720" y="140" as="targetPoint" />
          </mxGeometry>
        </mxCell>
        <mxCell id="GFcg_PQRNG52ITC8k2Fa-43" style="edgeStyle=orthogonalEdgeStyle;rounded=0;orthogonalLoop=1;jettySize=auto;html=1;entryX=1;entryY=0.25;entryDx=0;entryDy=0;strokeWidth=1;dashed=1;" edge="1" parent="1">
          <mxGeometry relative="1" as="geometry">
            <Array as="points">
              <mxPoint x="750" y="160" />
            </Array>
            <mxPoint x="750" y="280" as="sourcePoint" />
            <mxPoint x="720" y="160" as="targetPoint" />
          </mxGeometry>
        </mxCell>
        <mxCell id="GFcg_PQRNG52ITC8k2Fa-45" value="" style="endArrow=classic;html=1;rounded=0;strokeWidth=2;startArrow=classic;startFill=1;" edge="1" parent="1">
          <mxGeometry width="50" height="50" relative="1" as="geometry">
            <mxPoint x="370" y="600" as="sourcePoint" />
            <mxPoint x="370" y="720" as="targetPoint" />
          </mxGeometry>
        </mxCell>
        <mxCell id="GFcg_PQRNG52ITC8k2Fa-46" value="" style="endArrow=classic;html=1;rounded=0;strokeWidth=2;startArrow=classic;startFill=1;entryX=0;entryY=0.5;entryDx=0;entryDy=0;" edge="1" parent="1" target="GFcg_PQRNG52ITC8k2Fa-29">
          <mxGeometry width="50" height="50" relative="1" as="geometry">
            <mxPoint x="460" y="540" as="sourcePoint" />
            <mxPoint x="460" y="620" as="targetPoint" />
          </mxGeometry>
        </mxCell>
        <mxCell id="GFcg_PQRNG52ITC8k2Fa-47" value="" style="endArrow=classic;html=1;rounded=0;strokeWidth=2;startArrow=classic;startFill=1;entryX=0;entryY=0.5;entryDx=0;entryDy=0;" edge="1" parent="1">
          <mxGeometry width="50" height="50" relative="1" as="geometry">
            <mxPoint x="620" y="539.5" as="sourcePoint" />
            <mxPoint x="660" y="539.5" as="targetPoint" />
          </mxGeometry>
        </mxCell>
        <mxCell id="GFcg_PQRNG52ITC8k2Fa-48" value="" style="endArrow=classic;html=1;rounded=0;strokeWidth=2;startArrow=classic;startFill=1;entryX=0;entryY=0.5;entryDx=0;entryDy=0;" edge="1" parent="1">
          <mxGeometry width="50" height="50" relative="1" as="geometry">
            <mxPoint x="780" y="539.5" as="sourcePoint" />
            <mxPoint x="820" y="539.5" as="targetPoint" />
          </mxGeometry>
        </mxCell>
        <mxCell id="GFcg_PQRNG52ITC8k2Fa-52" value="" style="endArrow=classic;startArrow=classic;html=1;rounded=0;strokeWidth=2;edgeStyle=orthogonalEdgeStyle;entryX=0.25;entryY=1;entryDx=0;entryDy=0;exitX=0.75;exitY=1;exitDx=0;exitDy=0;" edge="1" parent="1" source="GFcg_PQRNG52ITC8k2Fa-28" target="GFcg_PQRNG52ITC8k2Fa-31">
          <mxGeometry width="50" height="50" relative="1" as="geometry">
            <mxPoint x="410" y="601" as="sourcePoint" />
            <mxPoint x="550" y="650" as="targetPoint" />
            <Array as="points">
              <mxPoint x="430" y="640" />
              <mxPoint x="850" y="640" />
            </Array>
          </mxGeometry>
        </mxCell>
        <mxCell id="GFcg_PQRNG52ITC8k2Fa-54" value="" style="endArrow=classic;html=1;rounded=0;strokeWidth=2;startArrow=classic;startFill=1;" edge="1" parent="1">
          <mxGeometry width="50" height="50" relative="1" as="geometry">
            <mxPoint x="399.5" y="600" as="sourcePoint" />
            <mxPoint x="399.5" y="720" as="targetPoint" />
          </mxGeometry>
        </mxCell>
        <mxCell id="GFcg_PQRNG52ITC8k2Fa-55" value="" style="endArrow=classic;html=1;rounded=0;strokeWidth=2;startArrow=classic;startFill=1;" edge="1" parent="1">
          <mxGeometry width="50" height="50" relative="1" as="geometry">
            <mxPoint x="530" y="600" as="sourcePoint" />
            <mxPoint x="530" y="720" as="targetPoint" />
          </mxGeometry>
        </mxCell>
        <mxCell id="GFcg_PQRNG52ITC8k2Fa-56" value="" style="endArrow=classic;html=1;rounded=0;strokeWidth=2;startArrow=classic;startFill=1;" edge="1" parent="1">
          <mxGeometry width="50" height="50" relative="1" as="geometry">
            <mxPoint x="590" y="600" as="sourcePoint" />
            <mxPoint x="590" y="720" as="targetPoint" />
          </mxGeometry>
        </mxCell>
        <mxCell id="GFcg_PQRNG52ITC8k2Fa-57" value="" style="endArrow=classic;html=1;rounded=0;strokeWidth=2;startArrow=classic;startFill=1;" edge="1" parent="1">
          <mxGeometry width="50" height="50" relative="1" as="geometry">
            <mxPoint x="690" y="600" as="sourcePoint" />
            <mxPoint x="690" y="720" as="targetPoint" />
          </mxGeometry>
        </mxCell>
        <mxCell id="GFcg_PQRNG52ITC8k2Fa-58" value="" style="endArrow=classic;html=1;rounded=0;strokeWidth=2;startArrow=classic;startFill=1;" edge="1" parent="1">
          <mxGeometry width="50" height="50" relative="1" as="geometry">
            <mxPoint x="750" y="600" as="sourcePoint" />
            <mxPoint x="750" y="720" as="targetPoint" />
          </mxGeometry>
        </mxCell>
        <mxCell id="GFcg_PQRNG52ITC8k2Fa-59" value="" style="endArrow=classic;html=1;rounded=0;strokeWidth=2;startArrow=classic;startFill=1;" edge="1" parent="1">
          <mxGeometry width="50" height="50" relative="1" as="geometry">
            <mxPoint x="910" y="600" as="sourcePoint" />
            <mxPoint x="910" y="720" as="targetPoint" />
          </mxGeometry>
        </mxCell>
        <mxCell id="GFcg_PQRNG52ITC8k2Fa-60" value="" style="endArrow=classic;html=1;rounded=0;strokeWidth=2;startArrow=classic;startFill=1;" edge="1" parent="1">
          <mxGeometry width="50" height="50" relative="1" as="geometry">
            <mxPoint x="879.5" y="600" as="sourcePoint" />
            <mxPoint x="879.5" y="720" as="targetPoint" />
          </mxGeometry>
        </mxCell>
      </root>
    </mxGraphModel>
  </diagram>
</mxfile>
